Coordinates
version=1
nRows=32
nColumns=12
inDegrees=yes

Units are S.I. units (second, meters, Newtons, ...)
Angles are in degrees

endheader
time	SC_y	SC_z	SC_x	AC_y	AC_z	AC_x	GH_y	GH_z	GH_yy	EL_x	PS_y
       0.0              -23.11          13.96          63.82          68.91         0.3206           12.1         -107.3         -7.151         -110.2          105.0          66.76
   0.02456              -23.11          13.96          63.81          68.91          0.321           12.1         -107.3         -7.149         -110.2          105.0          66.75
   0.04913              -23.11          13.95          63.81          68.91         0.3214           12.1         -107.3         -7.147         -110.1          105.0          66.74
   0.07369              -23.11          13.95          63.81          68.91         0.3218           12.1         -107.3         -7.145         -110.1          105.0          66.73
   0.09826              -23.11          13.95           63.8           68.9         0.3222           12.1         -107.3         -7.143         -110.1          104.9          66.72
    0.1228              -23.11          13.95           63.8           68.9         0.3227           12.1         -107.3          -7.14         -110.1          104.9          66.71
    0.1474              -23.11          13.94          63.79           68.9         0.3232           12.1         -107.3         -7.137         -110.1          104.9           66.7
     0.172              -23.11          13.94          63.79          68.89         0.3238           12.1         -107.3         -7.135         -110.1          104.9          66.69
    0.1965              -23.12          13.94          63.78          68.89         0.3243           12.1         -107.3         -7.132         -110.0          104.9          66.68
    0.2211              -23.12          13.93          63.77          68.89          0.325           12.1         -107.3         -7.129         -110.0          104.8          66.66
    0.2456              -23.12          13.93          63.77          68.88         0.3256           12.1         -107.3         -7.125         -110.0          104.8          66.65
    0.2702              -23.12          13.93          63.76          68.88         0.3263           12.1         -107.3         -7.122         -110.0          104.8          66.63
    0.2948              -23.12          13.92          63.75          68.87         0.3271           12.1         -107.3         -7.118         -110.0          104.8          66.61
    0.3193              -23.12          13.92          63.74          68.87          0.328           12.1         -107.3         -7.113         -109.9          104.7          66.59
    0.3439              -23.12          13.91          63.73          68.86         0.3289           12.1         -107.3         -7.109         -109.9          104.7          66.57
    0.3685              -23.12          13.91          63.72          68.85         0.3298           12.1         -107.3         -7.104         -109.9          104.7          66.55
     0.393              -23.12           13.9          63.71          68.85         0.3309           12.1         -107.4         -7.098         -109.8          104.6          66.52
    0.4176              -23.12           13.9           63.7          68.84         0.3321          12.11         -107.4         -7.092         -109.8          104.6           66.5
    0.4422              -23.12          13.89          63.69          68.83         0.3333          12.11         -107.4         -7.086         -109.7          104.5          66.47
    0.4667              -23.12          13.88          63.67          68.82         0.3347          12.11         -107.4         -7.079         -109.7          104.5          66.43
    0.4913              -23.12          13.88          63.66          68.81         0.3362          12.11         -107.4         -7.071         -109.6          104.4           66.4
    0.5159              -23.13          13.87          63.64           68.8         0.3379          12.11         -107.4         -7.062         -109.6          104.3          66.36
    0.5404              -23.13          13.86          63.62          68.79         0.3398          12.11         -107.4         -7.053         -109.5          104.3          66.32
     0.565              -23.13          13.85           63.6          68.78         0.3418          12.11         -107.4         -7.042         -109.4          104.2          66.27
    0.5896              -23.13          13.84          63.58          68.76         0.3441          12.11         -107.4         -7.031         -109.4          104.1          66.22
    0.6141              -23.13          13.82          63.55          68.74         0.3466          12.11         -107.4         -7.018         -109.3          104.0          66.16
    0.6387              -23.14          13.81          63.53          68.72         0.3495          12.11         -107.5         -7.003         -109.2          103.9          66.09
    0.6632              -23.14          13.79          63.49           68.7         0.3527          12.11         -107.5         -6.987         -109.1          103.8          66.02
    0.6878              -23.14          13.77          63.46          68.68         0.3563          12.11         -107.5         -6.968         -108.9          103.6          65.93
    0.7124              -23.14          13.75          63.42          68.65         0.3604          12.12         -107.5         -6.947         -108.8          103.5          65.84
    0.7369              -23.15          13.73          63.37          68.62         0.3651          12.12         -107.6         -6.923         -108.6          103.3          65.73
    0.7615              -23.15           13.7          63.31          68.59         0.3705          12.12         -107.6         -6.895         -108.5          103.1           65.6
